<?xml version="1.0" encoding="utf-8"?>
<!-- Generator: Adobe Illustrator 22.1.0, SVG Export Plug-In . SVG Version: 6.00 Build 0)  -->
<svg version="1.1" id="Layer_1" xmlns="http://www.w3.org/2000/svg" xmlns:xlink="http://www.w3.org/1999/xlink" x="0px" y="0px"
	 viewBox="0 0 62 62" style="enable-background:new 0 0 62 62;" xml:space="preserve">
<style type="text/css">
	.st0{fill:#FFFFFF;}
</style>
<rect x="44" y="10" class="st0" width="2" height="2"/>
<g>
	<path class="st0" d="M61.7,7.3l-2-2C59.5,5.1,59.3,5,59,5h-9V1c0-0.6-0.4-1-1-1h-8c-0.6,0-1,0.4-1,1v4h-2.6l-1.7-1.7
		C35.5,3.1,35.3,3,35,3h-4c-0.6,0-1,0.4-1,1v10h-5c-7.9,0-14.4,6.2-14.9,14H7c-0.6,0-1,0.4-1,1v2c0,0.3,0.1,0.5,0.3,0.7L7.6,33
		l-7.3,7.3c-0.1,0.1-0.2,0.2-0.2,0.3C0,40.7,0,40.9,0,41v4v4v4c0,0.1,0,0.3,0.1,0.4c0.1,0.1,0.1,0.2,0.2,0.3l8,8
		C8.5,61.9,8.7,62,9,62h14c0.3,0,0.5-0.1,0.7-0.3l8-8c0.1-0.1,0.2-0.2,0.2-0.3c0-0.1,0.1-0.3,0.1-0.4v-4v-4v-4c0-0.1,0-0.3-0.1-0.4
		c-0.1-0.1-0.1-0.2-0.2-0.3L24.4,33l1.3-1.3c0.2-0.2,0.3-0.4,0.3-0.7v-2c0-0.6-0.4-1-1-1h-3c0-2.8,2.2-5,5-5h3v3c0,0.6,0.4,1,1,1h4
		c0.3,0,0.5-0.1,0.7-0.3l1.7-1.7H59c0.3,0,0.5-0.1,0.7-0.3l2-2c0.2-0.2,0.3-0.4,0.3-0.7V8C62,7.7,61.9,7.5,61.7,7.3 M22.6,34l6,6
		H3.4l6-6H22.6z M30,52H2v-2h28V52z M2,46h28v2H2V46z M2,42h28v2H2V42z M22.6,60H9.4l-6-6h25.2L22.6,60z M24,30v0.6L22.6,32H9.4
		L8,30.6V30H24z M27,21c-3.9,0-7,3.1-7,7h-7.9c0.5-6.7,6.1-12,12.9-12h5v5H27z M42,2h6v9c0,1.7-1.3,3-3,3s-3-1.3-3-3V2z M32,5h2v20
		h-2V5z M37,23c-0.3,0-0.5,0.1-0.7,0.3L36,23.6V6.4l0.3,0.3C36.5,6.9,36.7,7,37,7h3v4c0,2.8,2.2,5,5,5s5-2.2,5-5V7h6v16H37z
		 M60,21.6L58.6,23H58V7h0.6L60,8.4V21.6z"/>
	<rect x="6" y="24" class="st0" width="2" height="2"/>
	<rect x="2" y="20" class="st0" width="2" height="2"/>
	<rect x="6" y="16" class="st0" width="2" height="2"/>
	<rect x="10" y="12" class="st0" width="2" height="2"/>
	<rect x="4" y="9" class="st0" width="2" height="2"/>
	<rect x="2" y="13" class="st0" width="2" height="2"/>
	<path class="st0" d="M61,37h-2.4l-2.7-5.4c-0.1-0.3-0.4-0.4-0.6-0.5c-0.3-0.1-0.6,0-0.8,0.1l-2.1,1.4l-2.5-5
		c-0.3-0.7-1.5-0.7-1.8,0l-2.5,5l-2.1-1.4C43.3,31,43,31,42.7,31c-0.3,0.1-0.5,0.3-0.6,0.5L39.4,37H37c-0.6,0-1,0.4-1,1v4
		c0,0.6,0.4,1,1,1h1.1c0.3,3.3,2.1,6.2,4.7,8l-6.6,9.4c-0.2,0.3-0.2,0.7-0.1,1c0.2,0.3,0.5,0.5,0.9,0.5h6c0.4,0,0.8-0.2,0.9-0.6
		l3.8-8.5C48.1,53,48.6,53,49,53s0.9,0,1.3-0.1l3.8,8.5c0.2,0.4,0.5,0.6,0.9,0.6h6c0.4,0,0.7-0.2,0.9-0.5c0.2-0.3,0.1-0.7-0.1-1
		L55.2,51c2.6-1.8,4.4-4.7,4.7-8H61c0.6,0,1-0.4,1-1v-4C62,37.4,61.6,37,61,37 M43.4,33.5l2.1,1.4C45.7,35,46,35,46.3,35
		c0.3-0.1,0.5-0.3,0.6-0.5l2.1-4.2l2.1,4.2c0.1,0.3,0.4,0.4,0.6,0.5c0.3,0.1,0.6,0,0.8-0.1l2.1-1.4l1.8,3.5H41.6L43.4,33.5z
		 M42.3,60h-3.4l5.6-8c0.4,0.2,0.8,0.3,1.2,0.5L42.3,60z M59.1,60h-3.4l-3.3-7.5c0.4-0.1,0.8-0.3,1.2-0.5L59.1,60z M49,51
		c-4.6,0-8.4-3.5-8.9-8h17.9C57.4,47.5,53.6,51,49,51 M60,41H38v-2h22V41z"/>
</g>
</svg>
