<?xml version="1.0" encoding="utf-8"?>
<!-- Generator: Adobe Illustrator 22.1.0, SVG Export Plug-In . SVG Version: 6.00 Build 0)  -->
<svg version="1.1" id="Layer_1" xmlns="http://www.w3.org/2000/svg" xmlns:xlink="http://www.w3.org/1999/xlink" x="0px" y="0px"
	 viewBox="0 0 2765.9 1024" style="enable-background:new 0 0 2765.9 1024;" xml:space="preserve">
<style type="text/css">
	.st0{fill:#FFFFFF;}
	.st1{fill:#DD2424;}
	.st2{fill:#FF6B00;}
</style>
<g>
	<g>
		<path class="st0" d="M2623.9,635l110.6,0.6L2635.7,411c-11-25.1-45.3-28.4-61-5.9l-31.8,45.7L2623.9,635z"/>
		<path class="st0" d="M2357.6,635.5V120h371.3L2357.6,635.5z M2458.5,224.7v98.1l71.7-98.1H2458.5z"/>
		<path class="st0" d="M1673.4,635l110.6,0.6L1685.1,411c-11-25.1-45.3-28.4-61-5.9l-31.8,45.7L1673.4,635z"/>
		<polygon class="st0" points="1656.1,120 1508,322.8 1508,120 1407.1,120 1407.1,635.5 1778.4,120 		"/>
		<path class="st0" d="M1246.3,635l110.6,0.6l-119.6-271.7c-12-27.2-50.2-28.2-63.6-1.6l-24.1,53L1246.3,635z"/>
		<polygon class="st0" points="1006.2,635.5 1139.9,341.7 1183.8,242.4 1129.9,120 895.3,635.5 		"/>
		<path class="st0" d="M2185.2,635l110.6,0.6l-119.6-271.7c-12-27.2-50.2-28.2-63.6-1.6l-25.3,50.3L2185.2,635z"/>
		<polygon class="st0" points="1945.1,635.5 2078.8,341.7 2122.7,242.4 2068.8,120 1834.2,635.5 		"/>
		<g>
			<path class="st0" d="M1003.7,769.6v139.1h-18.1v-62.9H913v62.9h-18.3V769.6H913v60.1h72.6v-60.1H1003.7z"/>
			<path class="st0" d="M1199.9,877.3h-68.2l-12.5,31.5h-19.2l58.1-139.1h15.5l58.3,139.1h-19.4L1199.9,877.3z M1193.6,861.7
				l-27.8-69.6l-27.8,69.6H1193.6z"/>
			<path class="st0" d="M1328.3,769.6h51.4c18.6,0,32.9,5,42.9,15.1c10.1,10.1,15.1,25.1,15.1,45.2v18.3c0,20-5.1,35.1-15.2,45.3
				c-10.2,10.2-24.6,15.2-43.3,15.2h-51V769.6z M1379.7,892.4c13.4,0,23.4-3.6,29.9-10.7c6.5-7.1,9.8-18.1,9.8-33.1v-17.7
				c0-15.3-3.3-26.7-9.8-34c-6.5-7.3-16.5-11-29.9-11h-33.1v106.5H1379.7z"/>
			<path class="st0" d="M1544.9,769.6h51.4c18.6,0,32.9,5,42.9,15.1c10.1,10.1,15.1,25.1,15.1,45.2v18.3c0,20-5.1,35.1-15.2,45.3
				c-10.2,10.2-24.6,15.2-43.3,15.2h-51V769.6z M1596.3,892.4c13.4,0,23.4-3.6,29.9-10.7c6.5-7.1,9.8-18.1,9.8-33.1v-17.7
				c0-15.3-3.3-26.7-9.8-34c-6.5-7.3-16.5-11-29.9-11h-33.1v106.5H1596.3z"/>
			<path class="st0" d="M1779.6,785.9v44h67.5v16.3h-67.5v46.2h78.8v16.3h-97.2V769.6h97.2v16.3H1779.6z"/>
			<path class="st0" d="M1974.3,895.1c-10.2-10.3-15.2-25.6-15.2-45.9v-20.4c0-20.3,5.1-35.6,15.3-45.9
				c10.2-10.3,24.7-15.4,43.3-15.4c16.8,0,30,3.9,39.7,11.7c9.7,7.8,14.5,18.7,14.5,32.7v1h-18.4v-0.8c0-9-3.1-15.9-9.4-20.8
				c-6.2-4.8-15.2-7.3-26.7-7.3c-13.6,0-23.7,3.7-30.2,11.1c-6.6,7.4-9.9,18.9-9.9,34.7v19.6c0,15.2,3.3,26.4,10,33.7
				c6.7,7.3,16.8,10.9,30.3,10.9c11.6,0,20.4-2.4,26.6-7.3c6.2-4.8,9.3-11.8,9.3-21V865h18.2v1c0,14-4.9,24.9-14.6,32.8
				c-9.7,7.9-23,11.8-39.8,11.8C1998.8,910.5,1984.4,905.4,1974.3,895.1z"/>
			<path class="st0" d="M2179.4,769.8h17.1v18.6h-17.1V769.8z M2179.4,805.5h17.1v103.2h-17.1V805.5z"/>
			<path class="st0" d="M2306.9,769.6h18.3v122.8h78v16.3h-96.4V769.6z"/>
			<path class="st0" d="M2499,769.8h17.1v18.6H2499V769.8z M2499,805.5h17.1v103.2H2499V805.5z"/>
			<path class="st0" d="M2676.1,837.1l-31.5,33.5v38.1h-18.3V769.6h18.3v77.8l71.6-77.8h23l-51,54.6l57.5,84.5h-22L2676.1,837.1z"/>
		</g>
	</g>
	<path class="st1" d="M227.8,899.8c-44.8-37.3-76-107.8,2.5-177.2c41.6-36.8,55-45.2,65-68.6c17.3-40.2,5.9-79.8-42.6-112
		c91.9-18.1,129,45.6,118.2,83.6c27.6-49.7,28.5-72.7-16.3-126.8c-52.1-62.9-7.7-156,70.2-139.4c-70.4,2-75.1,85.8-4.9,109.4
		c89.3,30,112.6,135.9,75.3,171.3c-31,29.5-20.3,47.6,4.6,42.1c16.6-3.7,49-50.4,26.7-94.6c45.6,41.4,64,91.5,52.3,131.1
		c-11,37.3-5.8,53.4,13.7,79.7c39.2,52.6,12,101.5,1.1,101.5H227.8z"/>
	<polygon class="st1" points="57.6,919.4 20.2,919.4 402.9,78.3 773.2,919.4 735.9,919.2 402.4,161.7 	"/>
	<path class="st2" d="M297.5,887.1c0,0-68.1-13.3-38.7-77.8c16.2-35.7,69.9-53.3,66.7-113.4c0,0,31.6,58.8,13.9,95.6
		c0,0,35.5-6.1,32.3-67.8c-3.2-61.7,62.2-92.2,75.8-98.1c0,0-52.3,53.3-13,100.8c39.3,47.5,19.2,69.9,7.3,86.7
		c-11.9,16.8,39,11.1,33.1-21.5c-5.9-32.6,25.5-59.1,25.5-59.1s-12.3,36.2,13.2,59.9c25.5,23.7,36.7,39.5,30.4,70.1
		c-9.3,45.3-94.5,24.5-94.5,24.5H297.5z"/>
	<path class="st1" d="M654.3,919.4H139.1c0-18.8,15.2-34.1,34.1-34.1h447C639,885.3,654.3,900.5,654.3,919.4"/>
</g>
</svg>
